<svg xmlns="http://www.w3.org/2000/svg" xmlns:cc="http://creativecommons.org/ns#" xmlns:dc="http://purl.org/dc/elements/1.1/" xmlns:rdf="http://www.w3.org/1999/02/22-rdf-syntax-ns#" version="1.1" viewBox="0 0 100 125" x="0px" y="0px"><path d="m50 2.4766c-26.367 0-47.773 21.406-47.773 47.773s21.406 47.773 47.773 47.773 47.773-21.406 47.773-47.773-21.406-47.773-47.773-47.773zm-1.1973 3.5547-0.052734 14.107h-14.365c0.2473-0.5463 0.49985-1.0819 0.75976-1.6016 3.7177-7.4326 8.5737-11.896 13.658-12.506zm3 0.095703c4.8632 0.87932 9.483 5.2734 13.053 12.41 0.25991 0.51962 0.51246 1.0553 0.75976 1.6016h-13.865l0.052734-14.012zm-11.117 0.32422c-3.1738 2.5024-5.9587 6.214-8.2246 10.744-0.47136 0.94235-0.91856 1.9288-1.3477 2.9434h-14.262c6.1977-6.8196 14.475-11.71 23.834-13.688zm18.629 0c9.3586 1.9771 17.636 6.8679 23.834 13.688h-14.262c-0.42909-1.0146-0.8763-2.001-1.3477-2.9434-2.2659-4.5301-5.0508-8.2418-8.2246-10.744zm-44.951 16.688h15.584c-2.5883 7.2244-4.1535 15.9-4.334 25.283l-20.338-0.076172c0.39554-9.46 3.7168-18.155 9.0879-25.207zm18.779 0h15.596l-0.095703 25.371-20.027-0.076172c0.1904-9.5158 1.8627-18.262 4.5273-25.295zm18.596 0h15.119c2.6795 7.0726 4.3546 15.877 4.5293 25.455l-19.744-0.074219 0.095703-25.381zm18.314 0h15.584c5.4348 7.1357 8.7679 15.955 9.0977 25.545l-20.346-0.078125c-0.16356-9.4538-1.7308-18.195-4.3359-25.467zm-64.799 28.207 20.352 0.076172c0.11623 9.4303 1.6263 18.17 4.1738 25.469h-15.775c-5.3118-7.1684-8.5201-15.984-8.75-25.545zm23.354 0.087891 20.023 0.076172-0.095703 25.381h-15.568c-2.6202-7.1081-4.2349-15.909-4.3594-25.457zm23.023 0.085937 19.76 0.076172c-0.14062 9.4857-1.7521 18.227-4.3574 25.295h-15.498l0.095703-25.371zm22.762 0.085938 20.344 0.078125c-0.29679 9.4304-3.4911 18.123-8.7402 25.207h-15.775c2.531-7.2511 4.0384-15.925 4.1719-25.285zm-57.949 28.285h14.467c0.48801 1.1849 1.0061 2.3251 1.5508 3.4141 2.2659 4.5301 5.0508 8.2418 8.2246 10.744-9.5696-2.0217-18.001-7.0967-24.242-14.158zm17.736 0h14.344l-0.054688 14.525c-4.9626-0.76187-9.6881-5.1837-13.324-12.453-0.33311-0.66596-0.65258-1.3627-0.96484-2.0723zm17.344 0h14.297c-0.31226 0.70952-0.63174 1.4063-0.96484 2.0723-3.6514 7.3-8.4013 11.729-13.387 12.463l0.054688-14.535zm17.566 0h14.467c-6.2411 7.0616-14.673 12.137-24.242 14.158 3.1738-2.5024 5.9587-6.214 8.2246-10.744 0.5447-1.089 1.0628-2.2291 1.5508-3.4141z" color="#000000" color-rendering="auto" dominant-baseline="auto" image-rendering="auto" shape-rendering="auto" solid-color="#000000" style="font-feature-settings:normal;font-variant-alternates:normal;font-variant-caps:normal;font-variant-ligatures:normal;font-variant-numeric:normal;font-variant-position:normal;isolation:auto;mix-blend-mode:normal;shape-padding:0;text-decoration-color:#000000;text-decoration-line:none;text-decoration-style:solid;text-indent:0;text-orientation:mixed;text-transform:none;white-space:normal;"/><text x="0" y="115" fill="#000000" font-size="5px" font-weight="bold" font-family="'Helvetica Neue', Helvetica, Arial-Unicode, Arial, Sans-serif">Created by Rinaros 79</text><text x="0" y="120" fill="#000000" font-size="5px" font-weight="bold" font-family="'Helvetica Neue', Helvetica, Arial-Unicode, Arial, Sans-serif">from the Noun Project</text></svg>